<?xml version="1.0" standalone="no"?>
<!DOCTYPE svg PUBLIC "-//W3C//DTD SVG 20010904//EN"
 "http://www.w3.org/TR/2001/REC-SVG-20010904/DTD/svg10.dtd">
<svg version="1.0" xmlns="http://www.w3.org/2000/svg"
 width="700.000000pt" height="700.000000pt" viewBox="0 0 700.000000 700.000000"
 preserveAspectRatio="xMidYMid meet">
<metadata>
Created by potrace 1.14, written by Peter Selinger 2001-2017
</metadata>
<g transform="translate(0.000000,700.000000) scale(0.100000,-0.100000)"
fill="#000000" stroke="none">
<path d="M991 6689 c-359 -75 -627 -356 -689 -722 -4 -23 -7 -339 -7 -702 0
-752 -4 -716 85 -803 147 -144 381 -100 469 88 l25 55 2 640 c1 352 4 650 7
661 19 77 92 159 172 195 l50 23 645 1 645 1 55 26 c195 91 233 328 77 481
-17 16 -51 39 -76 51 -45 21 -56 21 -706 23 -620 1 -666 0 -754 -18z"/>
<path d="M4597 6699 c-172 -40 -269 -239 -195 -400 31 -68 78 -114 148 -147
l55 -26 640 -2 c352 -1 651 -4 663 -8 35 -8 108 -53 138 -84 27 -29 62 -91 71
-126 3 -11 6 -309 7 -661 l2 -641 29 -59 c35 -72 72 -109 144 -143 61 -28 143
-33 208 -12 93 31 172 118 193 213 13 58 9 1329 -4 1382 -18 76 -28 113 -39
145 -15 45 -85 180 -103 198 -8 7 -14 18 -14 23 0 5 -35 45 -79 88 -121 123
-241 193 -416 245 -67 19 -96 20 -740 22 -370 1 -687 -2 -708 -7z"/>
<path d="M1724 5538 c-127 -14 -229 -101 -258 -222 -9 -37 -9 -1242 -1 -1293
12 -63 62 -139 122 -181 73 -52 80 -52 758 -49 347 1 641 6 653 9 82 24 160
99 192 185 19 51 20 81 19 680 0 625 0 628 -22 686 -35 90 -113 158 -210 182
-35 9 -1175 12 -1253 3z m897 -591 c3 -31 5 -553 2 -562 -2 -7 -104 -10 -291
-10 l-287 0 -1 291 -2 292 289 0 c212 0 289 -3 290 -11z"/>
<path d="M4070 5539 c-114 -9 -203 -69 -252 -169 l-23 -45 -2 -647 c-3 -644
-3 -646 19 -699 26 -63 86 -128 148 -160 l45 -24 645 -2 c620 -2 647 -2 700
17 85 31 154 109 184 207 12 39 9 1265 -3 1309 -25 94 -112 180 -206 205 -42
12 -1135 19 -1255 8z m887 -873 l-2 -291 -287 0 c-188 0 -288 3 -289 10 -1 5
-2 137 -3 292 l-1 281 292 -1 291 0 -1 -291z"/>
<path d="M1685 3200 c-104 -24 -188 -106 -215 -209 -13 -50 -18 -1243 -5
-1302 23 -108 116 -201 224 -224 19 -4 312 -7 652 -7 700 0 679 -2 768 78 27
24 59 65 72 91 l24 48 2 645 c2 633 2 646 -19 699 -27 72 -97 142 -169 169
-53 20 -70 21 -679 20 -344 0 -638 -4 -655 -8z m930 -582 c7 -4 10 -109 10
-290 l0 -283 -290 0 -290 0 -2 285 c0 157 3 287 7 290 12 8 553 6 565 -2z"/>
<path d="M3975 3185 c-76 -31 -144 -102 -168 -177 -14 -44 -16 -88 -14 -253 2
-179 4 -205 23 -246 77 -165 277 -224 430 -126 49 32 113 127 120 179 7 49 15
60 46 65 57 8 122 41 162 80 63 62 89 122 89 209 1 121 -61 216 -172 268 -41
19 -66 21 -251 23 -196 2 -208 1 -265 -22z"/>
<path d="M5165 3193 c-91 -27 -166 -102 -195 -196 -8 -26 -12 -172 -12 -497
l0 -460 -24 0 c-42 0 -118 -31 -161 -66 -59 -48 -104 -143 -104 -218 0 -106
48 -197 134 -250 28 -17 51 -29 51 -27 1 2 11 -1 24 -8 26 -14 375 -18 433 -6
106 23 204 120 224 221 3 16 6 308 6 649 0 674 0 678 -56 751 -39 51 -63 71
-113 94 -57 27 -142 32 -207 13z"/>
<path d="M511 2613 c-86 -22 -156 -80 -195 -163 -21 -44 -21 -53 -21 -720 0
-619 2 -681 18 -753 49 -208 156 -374 322 -501 92 -70 101 -76 186 -112 68
-28 138 -50 204 -62 22 -4 341 -7 710 -7 l670 0 47 23 c114 57 180 167 172
289 -8 114 -108 234 -218 260 -11 3 -304 6 -651 7 -346 2 -643 6 -660 11 -105
28 -187 111 -211 215 -4 19 -8 319 -9 665 l-1 630 -26 55 c-63 134 -197 199
-337 163z"/>
<path d="M6344 2615 c-93 -28 -152 -78 -192 -165 l-26 -55 -1 -645 -1 -645
-26 -55 c-33 -70 -79 -117 -148 -149 l-55 -25 -645 -1 -645 -1 -55 -25 c-108
-51 -174 -152 -173 -267 1 -119 82 -235 191 -274 29 -10 179 -13 692 -13 738
0 740 0 895 59 269 103 474 350 535 645 19 91 20 131 17 756 l-2 660 -23 42
c-26 50 -90 116 -133 137 -59 29 -147 38 -205 21z"/>
<path d="M3975 2020 c-61 -24 -126 -86 -157 -149 -32 -65 -32 -178 0 -242 79
-161 283 -219 427 -121 171 117 171 366 -1 484 -74 51 -181 62 -269 28z"/>
</g>
</svg>
